<svg xmlns="http://www.w3.org/2000/svg" xmlns:xlink="http://www.w3.org/1999/xlink" width="96" zoomAndPan="magnify" viewBox="0 0 72 72" height="96" preserveAspectRatio="xMidYMid meet" version="1.2"><defs><clipPath id="148900237b"><path d="M 0 0 L 71.851562 0 L 71.851562 71.851562 L 0 71.851562 Z M 0 0 "/></clipPath></defs><g id="68bc3b4ae7"><rect x="0" width="72" y="0" height="72" style="fill:#ffffff;fill-opacity:1;stroke:none;"/><g clip-rule="nonzero" clip-path="url(#148900237b)"><path style=" stroke:none;fill-rule:nonzero;fill:#ffffff;fill-opacity:1;" d="M 0 0 L 71.851562 0 L 71.851562 71.851562 L 0 71.851562 Z M 0 0 "/></g><path style="fill-rule:nonzero;fill:#ffffff;fill-opacity:1;stroke-width:1;stroke-linecap:butt;stroke-linejoin:miter;stroke:#000000;stroke-opacity:1;stroke-miterlimit:4;" d="M 1.9995 2.500379 L 8.99976 2.500379 M 13.000771 2.500379 L 14.000521 2.500379 M 15.000271 2.500379 L 16.000021 2.500379 M 16.999771 2.500379 L 17.999521 2.500379 M 18.99927 2.500379 L 19.99902 2.500379 M 21.000782 2.500379 L 22.000532 2.500379 M 24.000031 2.500379 L 25.999531 2.500379 M 27.999031 2.500379 L 34.999291 2.500379 M 1.9995 3.500129 L 2.99925 3.500129 M 8.00001 3.500129 L 8.99976 3.500129 M 11.99901 3.500129 L 13.000771 3.500129 M 14.000521 3.500129 L 17.999521 3.500129 M 19.99902 3.500129 L 21.000782 3.500129 M 23.000281 3.500129 L 24.000031 3.500129 M 24.999781 3.500129 L 26.999281 3.500129 M 27.999031 3.500129 L 29.000792 3.500129 M 33.999541 3.500129 L 34.999291 3.500129 M 1.9995 4.499879 L 2.99925 4.499879 M 3.998999 4.499879 L 7.000261 4.499879 M 8.00001 4.499879 L 8.99976 4.499879 M 10.99926 4.499879 L 11.99901 4.499879 M 15.000271 4.499879 L 16.000021 4.499879 M 17.999521 4.499879 L 18.99927 4.499879 M 19.99902 4.499879 L 21.000782 4.499879 M 24.000031 4.499879 L 24.999781 4.499879 M 25.999531 4.499879 L 26.999281 4.499879 M 27.999031 4.499879 L 29.000792 4.499879 M 30.000542 4.499879 L 32.999792 4.499879 M 33.999541 4.499879 L 34.999291 4.499879 M 1.9995 5.499629 L 2.99925 5.499629 M 3.998999 5.499629 L 7.000261 5.499629 M 8.00001 5.499629 L 8.99976 5.499629 M 11.99901 5.499629 L 14.000521 5.499629 M 15.000271 5.499629 L 16.999771 5.499629 M 17.999521 5.499629 L 21.000782 5.499629 M 22.000532 5.499629 L 23.000281 5.499629 M 24.000031 5.499629 L 26.999281 5.499629 M 27.999031 5.499629 L 29.000792 5.499629 M 30.000542 5.499629 L 32.999792 5.499629 M 33.999541 5.499629 L 34.999291 5.499629 M 1.9995 6.499379 L 2.99925 6.499379 M 3.998999 6.499379 L 7.000261 6.499379 M 8.00001 6.499379 L 8.99976 6.499379 M 10.99926 6.499379 L 11.99901 6.499379 M 13.000771 6.499379 L 16.999771 6.499379 M 19.99902 6.499379 L 24.000031 6.499379 M 24.999781 6.499379 L 25.999531 6.499379 M 27.999031 6.499379 L 29.000792 6.499379 M 30.000542 6.499379 L 32.999792 6.499379 M 33.999541 6.499379 L 34.999291 6.499379 M 1.9995 7.499129 L 2.99925 7.499129 M 8.00001 7.499129 L 8.99976 7.499129 M 9.99951 7.499129 L 10.99926 7.499129 M 11.99901 7.499129 L 14.000521 7.499129 M 15.000271 7.499129 L 16.000021 7.499129 M 16.999771 7.499129 L 19.99902 7.499129 M 21.000782 7.499129 L 22.000532 7.499129 M 23.000281 7.499129 L 24.000031 7.499129 M 25.999531 7.499129 L 26.999281 7.499129 M 27.999031 7.499129 L 29.000792 7.499129 M 33.999541 7.499129 L 34.999291 7.499129 M 1.9995 8.50089 L 8.99976 8.50089 M 9.99951 8.50089 L 10.99926 8.50089 M 11.99901 8.50089 L 13.000771 8.50089 M 14.000521 8.50089 L 15.000271 8.50089 M 16.000021 8.50089 L 16.999771 8.50089 M 17.999521 8.50089 L 18.99927 8.50089 M 19.99902 8.50089 L 21.000782 8.50089 M 22.000532 8.50089 L 23.000281 8.50089 M 24.000031 8.50089 L 24.999781 8.50089 M 25.999531 8.50089 L 26.999281 8.50089 M 27.999031 8.50089 L 34.999291 8.50089 M 14.000521 9.50064 L 15.000271 9.50064 M 16.999771 9.50064 L 21.000782 9.50064 M 23.000281 9.50064 L 24.000031 9.50064 M 24.999781 9.50064 L 26.999281 9.50064 M 1.9995 10.50039 L 2.99925 10.50039 M 5.000761 10.50039 L 6.000511 10.50039 M 7.000261 10.50039 L 8.99976 10.50039 M 9.99951 10.50039 L 10.99926 10.50039 M 15.000271 10.50039 L 16.999771 10.50039 M 17.999521 10.50039 L 18.99927 10.50039 M 23.000281 10.50039 L 24.000031 10.50039 M 26.999281 10.50039 L 27.999031 10.50039 M 29.000792 10.50039 L 30.000542 10.50039 M 1.9995 11.50014 L 5.000761 11.50014 M 6.000511 11.50014 L 7.000261 11.50014 M 9.99951 11.50014 L 11.99901 11.50014 M 15.000271 11.50014 L 16.000021 11.50014 M 17.999521 11.50014 L 19.99902 11.50014 M 22.000532 11.50014 L 23.000281 11.50014 M 25.999531 11.50014 L 30.000542 11.50014 M 32.999792 11.50014 L 34.999291 11.50014 M 2.99925 12.49989 L 5.000761 12.49989 M 6.000511 12.49989 L 7.000261 12.49989 M 8.00001 12.49989 L 8.99976 12.49989 M 9.99951 12.49989 L 11.99901 12.49989 M 15.000271 12.49989 L 16.999771 12.49989 M 17.999521 12.49989 L 18.99927 12.49989 M 19.99902 12.49989 L 23.000281 12.49989 M 25.999531 12.49989 L 31.000292 12.49989 M 32.000042 12.49989 L 32.999792 12.49989 M 33.999541 12.49989 L 34.999291 12.49989 M 6.000511 13.499639 L 7.000261 13.499639 M 8.99976 13.499639 L 13.000771 13.499639 M 15.000271 13.499639 L 16.000021 13.499639 M 16.999771 13.499639 L 18.99927 13.499639 M 19.99902 13.499639 L 22.000532 13.499639 M 23.000281 13.499639 L 24.000031 13.499639 M 24.999781 13.499639 L 26.999281 13.499639 M 27.999031 13.499639 L 29.000792 13.499639 M 30.000542 13.499639 L 32.000042 13.499639 M 33.999541 13.499639 L 34.999291 13.499639 M 2.99925 14.499389 L 7.000261 14.499389 M 8.00001 14.499389 L 8.99976 14.499389 M 10.99926 14.499389 L 13.000771 14.499389 M 14.000521 14.499389 L 15.000271 14.499389 M 16.000021 14.499389 L 18.99927 14.499389 M 19.99902 14.499389 L 21.000782 14.499389 M 22.000532 14.499389 L 24.000031 14.499389 M 24.999781 14.499389 L 29.000792 14.499389 M 31.000292 14.499389 L 32.000042 14.499389 M 3.998999 15.499139 L 5.000761 15.499139 M 9.99951 15.499139 L 11.99901 15.499139 M 14.000521 15.499139 L 17.999521 15.499139 M 18.99927 15.499139 L 21.000782 15.499139 M 22.000532 15.499139 L 24.999781 15.499139 M 26.999281 15.499139 L 29.000792 15.499139 M 30.000542 15.499139 L 31.000292 15.499139 M 32.000042 15.499139 L 34.999291 15.499139 M 1.9995 16.500901 L 7.000261 16.500901 M 8.00001 16.500901 L 9.99951 16.500901 M 14.000521 16.500901 L 16.000021 16.500901 M 16.999771 16.500901 L 19.99902 16.500901 M 21.000782 16.500901 L 22.000532 16.500901 M 24.999781 16.500901 L 29.000792 16.500901 M 31.000292 16.500901 L 32.000042 16.500901 M 32.999792 16.500901 L 33.999541 16.500901 M 1.9995 17.50065 L 3.998999 17.50065 M 5.000761 17.50065 L 8.00001 17.50065 M 9.99951 17.50065 L 10.99926 17.50065 M 11.99901 17.50065 L 13.000771 17.50065 M 15.000271 17.50065 L 16.000021 17.50065 M 17.999521 17.50065 L 21.000782 17.50065 M 22.000532 17.50065 L 24.000031 17.50065 M 25.999531 17.50065 L 26.999281 17.50065 M 27.999031 17.50065 L 29.000792 17.50065 M 30.000542 17.50065 L 32.000042 17.50065 M 32.999792 17.50065 L 33.999541 17.50065 M 3.998999 18.5004 L 5.000761 18.5004 M 6.000511 18.5004 L 8.99976 18.5004 M 11.99901 18.5004 L 14.000521 18.5004 M 15.000271 18.5004 L 16.000021 18.5004 M 16.999771 18.5004 L 17.999521 18.5004 M 18.99927 18.5004 L 19.99902 18.5004 M 23.000281 18.5004 L 26.999281 18.5004 M 27.999031 18.5004 L 29.000792 18.5004 M 30.000542 18.5004 L 31.000292 18.5004 M 32.999792 18.5004 L 33.999541 18.5004 M 1.9995 19.50015 L 2.99925 19.50015 M 6.000511 19.50015 L 8.00001 19.50015 M 10.99926 19.50015 L 14.000521 19.50015 M 17.999521 19.50015 L 21.000782 19.50015 M 23.000281 19.50015 L 24.000031 19.50015 M 24.999781 19.50015 L 25.999531 19.50015 M 29.000792 19.50015 L 30.000542 19.50015 M 31.000292 19.50015 L 32.000042 19.50015 M 32.999792 19.50015 L 33.999541 19.50015 M 5.000761 20.4999 L 6.000511 20.4999 M 8.00001 20.4999 L 10.99926 20.4999 M 15.000271 20.4999 L 16.999771 20.4999 M 18.99927 20.4999 L 19.99902 20.4999 M 22.000532 20.4999 L 23.000281 20.4999 M 24.000031 20.4999 L 24.999781 20.4999 M 26.999281 20.4999 L 29.000792 20.4999 M 32.000042 20.4999 L 34.999291 20.4999 M 3.998999 21.49965 L 5.000761 21.49965 M 7.000261 21.49965 L 8.00001 21.49965 M 9.99951 21.49965 L 11.99901 21.49965 M 15.000271 21.49965 L 16.000021 21.49965 M 16.999771 21.49965 L 18.99927 21.49965 M 21.000782 21.49965 L 22.000532 21.49965 M 23.000281 21.49965 L 24.000031 21.49965 M 25.999531 21.49965 L 26.999281 21.49965 M 29.000792 21.49965 L 30.000542 21.49965 M 33.999541 21.49965 L 34.999291 21.49965 M 1.9995 22.4994 L 8.99976 22.4994 M 9.99951 22.4994 L 10.99926 22.4994 M 13.000771 22.4994 L 14.000521 22.4994 M 15.000271 22.4994 L 16.999771 22.4994 M 18.99927 22.4994 L 19.99902 22.4994 M 23.000281 22.4994 L 24.000031 22.4994 M 24.999781 22.4994 L 27.999031 22.4994 M 32.999792 22.4994 L 34.999291 22.4994 M 3.998999 23.49915 L 6.000511 23.49915 M 8.99976 23.49915 L 10.99926 23.49915 M 11.99901 23.49915 L 13.000771 23.49915 M 16.000021 23.49915 L 17.999521 23.49915 M 18.99927 23.49915 L 19.99902 23.49915 M 21.000782 23.49915 L 22.000532 23.49915 M 23.000281 23.49915 L 24.000031 23.49915 M 25.999531 23.49915 L 29.000792 23.49915 M 32.000042 23.49915 L 34.999291 23.49915 M 1.9995 24.500911 L 6.000511 24.500911 M 7.000261 24.500911 L 8.99976 24.500911 M 11.99901 24.500911 L 13.000771 24.500911 M 17.999521 24.500911 L 19.99902 24.500911 M 21.000782 24.500911 L 22.000532 24.500911 M 24.000031 24.500911 L 24.999781 24.500911 M 27.999031 24.500911 L 32.000042 24.500911 M 33.999541 24.500911 L 34.999291 24.500911 M 2.99925 25.500661 L 5.000761 25.500661 M 6.000511 25.500661 L 7.000261 25.500661 M 10.99926 25.500661 L 11.99901 25.500661 M 16.999771 25.500661 L 17.999521 25.500661 M 22.000532 25.500661 L 24.000031 25.500661 M 24.999781 25.500661 L 26.999281 25.500661 M 30.000542 25.500661 L 32.000042 25.500661 M 32.999792 25.500661 L 33.999541 25.500661 M 1.9995 26.500411 L 2.99925 26.500411 M 5.000761 26.500411 L 7.000261 26.500411 M 8.00001 26.500411 L 13.000771 26.500411 M 17.999521 26.500411 L 19.99902 26.500411 M 23.000281 26.500411 L 24.000031 26.500411 M 24.999781 26.500411 L 31.000292 26.500411 M 33.999541 26.500411 L 34.999291 26.500411 M 9.99951 27.500161 L 10.99926 27.500161 M 11.99901 27.500161 L 16.999771 27.500161 M 18.99927 27.500161 L 19.99902 27.500161 M 21.000782 27.500161 L 23.000281 27.500161 M 24.000031 27.500161 L 24.999781 27.500161 M 25.999531 27.500161 L 26.999281 27.500161 M 30.000542 27.500161 L 32.000042 27.500161 M 33.999541 27.500161 L 34.999291 27.500161 M 1.9995 28.49991 L 8.99976 28.49991 M 10.99926 28.49991 L 13.000771 28.49991 M 14.000521 28.49991 L 16.999771 28.49991 M 18.99927 28.49991 L 21.000782 28.49991 M 22.000532 28.49991 L 24.000031 28.49991 M 25.999531 28.49991 L 26.999281 28.49991 M 27.999031 28.49991 L 29.000792 28.49991 M 30.000542 28.49991 L 32.999792 28.49991 M 1.9995 29.49966 L 2.99925 29.49966 M 8.00001 29.49966 L 8.99976 29.49966 M 9.99951 29.49966 L 10.99926 29.49966 M 14.000521 29.49966 L 15.000271 29.49966 M 16.000021 29.49966 L 16.999771 29.49966 M 18.99927 29.49966 L 22.000532 29.49966 M 23.000281 29.49966 L 24.000031 29.49966 M 25.999531 29.49966 L 26.999281 29.49966 M 30.000542 29.49966 L 31.000292 29.49966 M 1.9995 30.49941 L 2.99925 30.49941 M 3.998999 30.49941 L 7.000261 30.49941 M 8.00001 30.49941 L 8.99976 30.49941 M 13.000771 30.49941 L 15.000271 30.49941 M 16.000021 30.49941 L 16.999771 30.49941 M 19.99902 30.49941 L 22.000532 30.49941 M 23.000281 30.49941 L 24.999781 30.49941 M 25.999531 30.49941 L 32.000042 30.49941 M 32.999792 30.49941 L 33.999541 30.49941 M 1.9995 31.49916 L 2.99925 31.49916 M 3.998999 31.49916 L 7.000261 31.49916 M 8.00001 31.49916 L 8.99976 31.49916 M 9.99951 31.49916 L 11.99901 31.49916 M 13.000771 31.49916 L 15.000271 31.49916 M 16.000021 31.49916 L 18.99927 31.49916 M 19.99902 31.49916 L 21.000782 31.49916 M 24.999781 31.49916 L 26.999281 31.49916 M 27.999031 31.49916 L 29.000792 31.49916 M 30.000542 31.49916 L 32.000042 31.49916 M 1.9995 32.500921 L 2.99925 32.500921 M 3.998999 32.500921 L 7.000261 32.500921 M 8.00001 32.500921 L 8.99976 32.500921 M 10.99926 32.500921 L 11.99901 32.500921 M 13.000771 32.500921 L 16.000021 32.500921 M 16.999771 32.500921 L 18.99927 32.500921 M 19.99902 32.500921 L 21.000782 32.500921 M 24.000031 32.500921 L 27.999031 32.500921 M 30.000542 32.500921 L 31.000292 32.500921 M 32.000042 32.500921 L 32.999792 32.500921 M 33.999541 32.500921 L 34.999291 32.500921 M 1.9995 33.500671 L 2.99925 33.500671 M 8.00001 33.500671 L 8.99976 33.500671 M 10.99926 33.500671 L 13.000771 33.500671 M 15.000271 33.500671 L 16.999771 33.500671 M 18.99927 33.500671 L 22.000532 33.500671 M 23.000281 33.500671 L 26.999281 33.500671 M 27.999031 33.500671 L 29.000792 33.500671 M 1.9995 34.500421 L 8.99976 34.500421 M 9.99951 34.500421 L 10.99926 34.500421 M 11.99901 34.500421 L 15.000271 34.500421 M 16.000021 34.500421 L 17.999521 34.500421 M 21.000782 34.500421 L 22.000532 34.500421 M 23.000281 34.500421 L 24.000031 34.500421 M 25.999531 34.500421 L 27.999031 34.500421 M 30.000542 34.500421 L 32.000042 34.500421 M 32.999792 34.500421 L 33.999541 34.500421 " transform="matrix(1.941892,0,0,1.941892,-0.000000000000005329,0.000002)"/></g></svg>